<?xml version="1.0" encoding="utf-8"?>
<!-- Generator: Adobe Illustrator 22.1.0, SVG Export Plug-In . SVG Version: 6.00 Build 0)  -->
<svg version="1.1" id="圖層_1" xmlns="http://www.w3.org/2000/svg" xmlns:xlink="http://www.w3.org/1999/xlink" x="0px" y="0px"
	 viewBox="0 0 16 16" style="enable-background:new 0 0 16 16;" xml:space="preserve">
<style type="text/css">
	.st0{fill:#FFFFFF;}
</style>
<path class="st0" d="M1,8.5v6C1,15.3,1.7,16,2.5,16h11c0.8,0,1.5-0.7,1.5-1.5v-6c0-0.7-1-0.6-1,0v6c0,0.3-0.2,0.5-0.5,0.5H10V8.5
	c0-0.7-1-0.6-1,0V15H7V8.5c0-0.7-1-0.6-1,0V15H2.5C2.2,15,2,14.8,2,14.5v-6C2,7.9,1,7.8,1,8.5z M4.9,0C4.1,0,3.5,0.7,3.2,1.2
	C2.9,1.7,2.9,2.4,3.2,3H1.5C0.7,3,0,3.7,0,4.5v1C0,6.3,0.7,7,1.5,7h13C15.3,7,16,6.3,16,5.5v-1C16,3.7,15.3,3,14.5,3h-1.7
	c0.3-0.6,0.3-1.3,0-1.8c-0.3-0.5-0.8-0.9-1.3-1.1C11-0.1,10.4,0,9.9,0.3C9.1,0.9,8.5,1.7,8,2.4C7.4,1.7,6.8,0.8,6.1,0.3
	C5.7,0.1,5.3,0,4.9,0z M4.9,1c0.2,0,0.5,0.1,0.7,0.2C6.4,1.8,6.8,2.5,7.2,3H5C4.1,3,3.9,2.1,4.1,1.6C4.3,1.2,4.7,1,4.9,1z M11.1,1
	c0.4,0,0.7,0.3,0.8,0.6C12.2,2.3,11.7,3,11,3H8.8c0.4-0.6,1.1-1.3,1.6-1.8C10.6,1.1,10.9,1,11.1,1L11.1,1z M1.5,4h13
	C14.8,4,15,4.2,15,4.5v1C15,5.8,14.8,6,14.5,6h-13C1.2,6,1,5.8,1,5.5v-1C1,4.2,1.2,4,1.5,4z"/>
</svg>
