<?xml version="1.0" encoding="utf-8"?>
<!-- Generator: Adobe Illustrator 22.1.0, SVG Export Plug-In . SVG Version: 6.00 Build 0)  -->
<svg version="1.1" id="圖層_1" xmlns="http://www.w3.org/2000/svg" xmlns:xlink="http://www.w3.org/1999/xlink" x="0px" y="0px"
	 viewBox="0 0 16 16" style="enable-background:new 0 0 16 16;" xml:space="preserve">
<style type="text/css">
	.st0{fill:#FFFFFF;}
</style>
<path class="st0" d="M6.5,8h6c0.7,0,0.6,1,0,1h-6C5.8,9,5.8,8,6.5,8z M0.5,3H2c0.4,0,0.5,0.6,0.6,1.1l1,5.3C4,10.7,4.8,11,6,11h6
	c1.5,0,2.5-0.2,2.9-1.5l0.9-3.2C16.3,4.8,15.7,4,14.2,4H5.5c-0.7,0-0.7,1,0,1h8.7c0.9,0,0.9,0.4,0.7,1.1L14,9.2
	C13.7,10,12.8,10,12,10H6c-0.9,0-1.2-0.1-1.4-0.9l-1-5.2C3.4,2.8,3.1,2,2,2H0.5C-0.2,2-0.2,3,0.5,3z M5.5,6h8c0.7,0,0.7,1,0,1h-8
	C4.8,7,4.8,6,5.5,6z M11.5,12c-0.8,0-1.5,0.7-1.5,1.5s0.7,1.5,1.5,1.5s1.5-0.7,1.5-1.5S12.3,12,11.5,12z M11.5,13
	c0.3,0,0.5,0.2,0.5,0.5S11.8,14,11.5,14S11,13.8,11,13.5S11.2,13,11.5,13z M5.5,12C4.7,12,4,12.7,4,13.5S4.7,15,5.5,15
	S7,14.3,7,13.5S6.3,12,5.5,12z M5.5,13C5.8,13,6,13.2,6,13.5S5.8,14,5.5,14S5,13.8,5,13.5S5.2,13,5.5,13z"/>
</svg>
