<?xml version="1.0" encoding="utf-8"?>
<!-- Generator: Adobe Illustrator 22.1.0, SVG Export Plug-In . SVG Version: 6.00 Build 0)  -->
<svg version="1.1" id="圖層_1" xmlns="http://www.w3.org/2000/svg" xmlns:xlink="http://www.w3.org/1999/xlink" x="0px" y="0px"
	 viewBox="0 0 16 16" style="enable-background:new 0 0 16 16;" xml:space="preserve">
<style type="text/css">
	.st0{fill:#FFFFFF;}
</style>
<path class="st0" d="M2.2,5.9l4.6,2.8c0.8,0.5,1.7,0.4,2.4,0l4.6-2.8c0.6-0.4,0-1.1-0.5-0.8L8.7,7.8c-0.4,0.3-0.9,0.2-1.3,0L2.7,5.1
	C2.2,4.8,1.7,5.5,2.2,5.9z M1.5,3C0.7,3,0,3.7,0,4.5v7C0,12.3,0.7,13,1.5,13h13c0.8,0,1.5-0.7,1.5-1.5v-7C16,3.7,15.3,3,14.5,3H1.5z
	 M1.5,4h13C14.8,4,15,4.2,15,4.5v7c0,0.3-0.2,0.5-0.5,0.5h-13C1.2,12,1,11.8,1,11.5v-7C1,4.2,1.2,4,1.5,4z"/>
</svg>
