<?xml version="1.0" encoding="utf-8"?>
<!-- Generator: Adobe Illustrator 22.1.0, SVG Export Plug-In . SVG Version: 6.00 Build 0)  -->
<svg version="1.1" id="圖層_1" xmlns="http://www.w3.org/2000/svg" xmlns:xlink="http://www.w3.org/1999/xlink" x="0px" y="0px"
	 viewBox="0 0 16 16" style="enable-background:new 0 0 16 16;" xml:space="preserve">
<style type="text/css">
	.st0{fill:#FFFFFF;}
</style>
<path class="st0" d="M8,3C6.3,3,5,4.4,5,6s1.3,3,3,3s3-1.4,3-3S9.7,3,8,3z M8,4c1.1,0,2,0.9,2,2S9.1,8,8,8S6,7.1,6,6S6.9,4,8,4z
	 M8,0C4.7,0,2,2.7,2,6c0,6.3,5.7,9.9,5.7,9.9c0.2,0.1,0.4,0.1,0.6,0c0,0,5.7-3.7,5.7-9.9C14,2.7,11.3,0,8,0z M8,1c2.8,0,5,2.2,5,5
	c0,5.3-4.5,8.5-5,8.8C7.5,14.5,3,11.3,3,6C3,3.2,5.2,1,8,1z"/>
</svg>
