<?xml version="1.0" encoding="utf-8"?>
<!-- Generator: Adobe Illustrator 22.1.0, SVG Export Plug-In . SVG Version: 6.00 Build 0)  -->
<svg version="1.1" id="圖層_1" xmlns="http://www.w3.org/2000/svg" xmlns:xlink="http://www.w3.org/1999/xlink" x="0px" y="0px"
	 viewBox="0 0 16 16" style="enable-background:new 0 0 16 16;" xml:space="preserve">
<style type="text/css">
	.st0{fill:#FFFFFF;}
</style>
<path class="st0" d="M5.1,10.1l-5,5c-0.4,0.4,0.2,1.2,0.7,0.7l5-5C6.3,10.4,5.6,9.7,5.1,10.1z M10.5,2C9.6,2,8.7,2.3,8.1,3.1
	C7.7,3.6,8.4,4.2,8.8,3.9c1-1.1,2.4-1.1,3.4,0c0.3,0.4,1.1-0.2,0.7-0.8C12.2,2.3,11.4,2,10.5,2z M10.5,0C7.5,0,5,2.5,5,5.5
	S7.5,11,10.5,11S16,8.5,16,5.5S13.5,0,10.5,0z M10.5,1C13,1,15,3,15,5.5S13,10,10.5,10S6,8,6,5.5S8,1,10.5,1z"/>
</svg>
