<?xml version="1.0" encoding="utf-8"?>
<!-- Generator: Adobe Illustrator 22.1.0, SVG Export Plug-In . SVG Version: 6.00 Build 0)  -->
<svg version="1.1" id="圖層_1" xmlns="http://www.w3.org/2000/svg" xmlns:xlink="http://www.w3.org/1999/xlink" x="0px" y="0px"
	 viewBox="0 0 16 16" style="enable-background:new 0 0 16 16;" xml:space="preserve">
<style type="text/css">
	.st0{fill:#FFFFFF;}
</style>
<path class="st0" d="M9,0.5v1c0,0.7-1,0.7-1,0v-1C8-0.2,9-0.2,9,0.5z M6,0.5v1c0,0.7-1,0.7-1,0v-1C5-0.2,6-0.2,6,0.5z M12.5,6H13
	c1.1,0,2,0.9,2,2s-0.9,2-2,2h-0.5c-0.7,0-0.6,1,0,1H13c1.6,0,3-1.4,3-3s-1.4-3-3-3h-0.5C11.8,5,11.9,6,12.5,6z M2.5,5h6
	c0.7,0,0.7,1,0,1h-6C1.8,6,1.8,5,2.5,5z M3,0.5v1c0,0.7-1,0.7-1,0v-1C2-0.2,3-0.1,3,0.5z M10.5,16c0.7,0,0.7-1,0-1H8.7
	c1.4-1,2.3-2.6,2.3-4.5v-7c0-0.7-1-0.6-1,0v7C10,13,8,15,5.5,15S1,13,1,10.5v-7c0-0.7-1-0.7-1,0v7C0,12.4,0.9,14,2.3,15H0.5
	c-0.7,0-0.7,1,0,1H10.5z"/>
</svg>
